<svg xmlns="http://www.w3.org/2000/svg" viewBox="0 0 2.562 0.706">
  <defs>
    <style>
      .fil0,.fil1{fill:#102c63;fill-rule:nonzero}.fil1{fill:#f08519}
    </style>
  </defs>
  <g id="Layer_x0020_4">
    <path class="fil0" d="M.02.295L.096.287a.094.094 0 0 0 .028.057.084.084 0 0 0 .057.018C.206.362.225.357.238.346a.048.048 0 0 0 .02-.038.036.036 0 0 0-.009-.024.064.064 0 0 0-.028-.017A.895.895 0 0 0 .158.25.211.211 0 0 1 .07.211.103.103 0 0 1 .034.132.103.103 0 0 1 .1.036.192.192 0 0 1 .176.022c.049 0 .085.011.11.033.025.022.038.05.039.087L.246.145C.243.125.236.11.224.101.214.093.197.088.175.088a.088.088 0 0 0-.053.014.029.029 0 0 0-.013.025c0 .01.004.017.012.024.01.008.034.017.072.026a.375.375 0 0 1 .085.028.11.11 0 0 1 .043.04c.01.017.015.038.015.063a.116.116 0 0 1-.07.107.218.218 0 0 1-.086.014C.131.429.093.418.067.395a.15.15 0 0 1-.047-.1z"/>
    <path id="1" class="fil0" d="M.754.422H.67L.635.332H.48l-.032.09H.363L.515.029h.083l.156.393zM.61.266L.556.121.503.266H.61z"/>
    <path id="2" class="fil0" d="M.775.295L.852.287A.094.094 0 0 0 .88.344a.084.084 0 0 0 .057.018C.962.362.98.357.994.346a.048.048 0 0 0 .02-.038.036.036 0 0 0-.009-.024.064.064 0 0 0-.028-.017A.895.895 0 0 0 .914.25.211.211 0 0 1 .826.211.103.103 0 0 1 .79.132.103.103 0 0 1 .855.036.192.192 0 0 1 .932.022c.048 0 .085.011.11.033.024.022.037.05.039.087L1 .145C.999.125.992.11.982.101.968.093.952.088.93.088a.088.088 0 0 0-.053.014.029.029 0 0 0-.013.025c0 .01.004.017.012.024.01.008.034.017.072.026a.375.375 0 0 1 .085.028.11.11 0 0 1 .042.04c.01.017.016.038.016.063a.116.116 0 0 1-.071.107.218.218 0 0 1-.085.014C.886.429.849.418.823.395a.15.15 0 0 1-.048-.1z"/>
    <path id="3" class="fil1" d="M1.246.422V.096h-.115V.029h.31v.067h-.116v.326z"/>
    <path id="4" class="fil1" d="M1.532.422h-.075V.137h.07v.04A.118.118 0 0 1 1.558.14.06.06 0 0 1 1.59.131c.017 0 .033.005.05.014l-.024.066a.065.065 0 0 0-.035-.012c-.01 0-.02.003-.027.008-.007.006-.013.017-.017.032a.45.45 0 0 0-.006.095v.088z"/>
    <path id="5" class="fil1" d="M1.728.225L1.66.213A.108.108 0 0 1 1.7.151a.142.142 0 0 1 .083-.02c.033 0 .058.004.074.012a.074.074 0 0 1 .034.03c.007.013.01.035.01.068v.087c0 .025 0 .044.003.056a.16.16 0 0 0 .013.038h-.074a.283.283 0 0 1-.01-.03.133.133 0 0 1-.04.027.115.115 0 0 1-.047.01.095.095 0 0 1-.068-.024.08.08 0 0 1-.025-.06.075.075 0 0 1 .043-.072.25.25 0 0 1 .06-.017.407.407 0 0 0 .072-.019V.23c0-.014-.004-.025-.01-.03-.008-.007-.021-.01-.04-.01a.052.052 0 0 0-.032.008.055.055 0 0 0-.018.028zm.1.06a.463.463 0 0 1-.045.012.14.14 0 0 0-.041.013.032.032 0 0 0-.015.027c0 .01.004.02.012.027a.04.04 0 0 0 .03.012.065.065 0 0 0 .038-.014.047.047 0 0 0 .018-.025.152.152 0 0 0 .003-.036V.286z"/>
    <path id="6" class="fil1" d="M2.234.422h-.07V.38a.116.116 0 0 1-.04.037.102.102 0 0 1-.048.012.107.107 0 0 1-.083-.04.162.162 0 0 1-.035-.11c0-.048.011-.085.034-.11a.11.11 0 0 1 .167.002V.029h.075v.393zm-.2-.148c0 .03.005.053.013.066a.056.056 0 0 0 .094.008C2.153.333 2.16.31 2.16.28c0-.033-.005-.056-.017-.07a.055.055 0 0 0-.045-.022.056.056 0 0 0-.044.021c-.012.014-.018.036-.018.064z"/>
    <path id="7" class="fil1" d="M2.47.332l.075.012A.123.123 0 0 1 2.5.407a.133.133 0 0 1-.078.022c-.049 0-.085-.016-.109-.049a.164.164 0 0 1-.028-.098c0-.047.013-.084.037-.11a.12.12 0 0 1 .093-.04c.042 0 .075.013.1.041.023.028.035.071.034.129h-.187c0 .022.007.04.018.052a.056.056 0 0 0 .043.018.045.045 0 0 0 .03-.01.06.06 0 0 0 .017-.03zm.005-.076c0-.022-.006-.039-.017-.05A.05.05 0 0 0 2.42.189a.052.052 0 0 0-.04.018.07.07 0 0 0-.015.049h.11z"/>
    <path id="8" class="fil0" d="M.01.63L.023.63v.003c0 .004 0 .008.002.01A.017.017 0 0 0 .034.65a.036.036 0 0 0 .014.003C.056.653.062.65.066.648.07.644.072.64.072.636A.013.013 0 0 0 .069.627.061.061 0 0 0 .05.617.13.13 0 0 1 .035.61.031.031 0 0 1 .025.6.024.024 0 0 1 .026.575a.026.026 0 0 1 .012-.01.047.047 0 0 1 .018-.003c.008 0 .015.001.02.004.006.003.01.006.012.01A.026.026 0 0 1 .092.59v.002H.079V.587A.017.017 0 0 0 .066.575.033.033 0 0 0 .056.573a.025.025 0 0 0-.017.005.012.012 0 0 0-.004.01c0 .002 0 .004.002.006A.019.019 0 0 0 .043.6.254.254 0 0 0 .06.607a.108.108 0 0 1 .014.008.023.023 0 0 1 .011.02C.085.64.084.645.08.649a.031.031 0 0 1-.013.01.049.049 0 0 1-.02.005.047.047 0 0 1-.026-.008C.014.652.01.643.01.63z"/>
    <path id="9" class="fil0" d="M.144.65C.136.658.127.662.118.662A.019.019 0 0 1 .105.66.015.015 0 0 1 .1.647C.1.644.1.64.102.632L.112.59h.012l-.01.046a.044.044 0 0 0-.002.009c0 .002 0 .004.003.005.001.002.004.003.007.003S.129.653.132.65A.027.027 0 0 0 .14.644a.035.035 0 0 0 .006-.01.087.087 0 0 0 .003-.012L.156.59h.012L.152.66h-.01L.143.65z"/>
    <path id="10" class="fil0" d="M.166.69l.02-.1h.011L.195.6A.044.044 0 0 1 .206.593a.022.022 0 0 1 .01-.003C.224.59.23.592.234.597.238.602.24.609.24.617a.054.054 0 0 1-.004.021.045.045 0 0 1-.009.015.038.038 0 0 1-.01.008.026.026 0 0 1-.011.002C.197.663.19.66.186.65L.178.69H.166zM.19.632v.01a.015.015 0 0 0 .015.01C.212.654.217.65.222.643A.05.05 0 0 0 .228.618.02.02 0 0 0 .224.604a.014.014 0 0 0-.01-.005c-.004 0-.007 0-.01.002A.025.025 0 0 0 .198.61.044.044 0 0 0 .192.62.042.042 0 0 0 .19.633z"/>
    <path id="11" class="fil0" d="M.242.69l.02-.1h.011L.271.6A.044.044 0 0 1 .282.593a.022.022 0 0 1 .01-.003C.3.59.305.592.31.597c.005.005.007.012.007.02a.054.054 0 0 1-.004.021.045.045 0 0 1-.009.015.038.038 0 0 1-.01.008.026.026 0 0 1-.012.002C.273.663.266.66.261.65L.253.69H.241zM.265.632l.001.01a.015.015 0 0 0 .015.01C.288.654.293.65.297.643A.05.05 0 0 0 .304.618.02.02 0 0 0 .299.604.014.014 0 0 0 .29.599c-.003 0-.006 0-.009.002A.025.025 0 0 0 .273.61.044.044 0 0 0 .267.62a.042.042 0 0 0-.002.012z"/>
    <path id="12" class="fil0" d="M.325.635A.05.05 0 0 1 .337.6.034.034 0 0 1 .363.589c.009 0 .016.003.02.008A.03.03 0 0 1 .393.62a.053.053 0 0 1-.005.023.036.036 0 0 1-.033.021A.032.032 0 0 1 .339.66a.024.024 0 0 1-.01-.01.03.03 0 0 1-.004-.015zM.337.634c0 .006.001.011.005.015a.016.016 0 0 0 .012.005.02.02 0 0 0 .008-.001.022.022 0 0 0 .007-.005A.031.031 0 0 0 .374.64.042.042 0 0 0 .378.632.042.042 0 0 0 .38.619.021.021 0 0 0 .375.604.016.016 0 0 0 .363.599.02.02 0 0 0 .353.6.027.027 0 0 0 .344.61.035.035 0 0 0 .34.621a.05.05 0 0 0-.002.013z"/>
    <path id="13" class="fil0" d="M.399.662L.413.59h.01L.422.605A.05.05 0 0 1 .43.593.017.017 0 0 1 .443.59a.02.02 0 0 1 .01.003L.445.603A.011.011 0 0 0 .44.601C.435.6.431.603.426.608a.054.054 0 0 0-.01.025L.41.662H.398z"/>
    <path id="14" class="fil0" d="M.472.652L.47.662A.033.033 0 0 1 .46.663.017.017 0 0 1 .45.66.01.01 0 0 1 .447.652l.002-.01L.457.6h-.01L.45.59h.009L.463.574.476.565.471.591h.012L.48.6H.469L.461.638a.073.073 0 0 0-.002.01s0 .002.002.003h.004a.03.03 0 0 0 .007 0z"/>
    <path id="15" class="fil0" d="M.52.662L.542.564h.044l.01.004a.02.02 0 0 1 .008.008.023.023 0 0 1 .003.011C.606.593.604.597.6.601a.027.027 0 0 1-.013.01c.005.001.009.004.011.008A.02.02 0 0 1 .603.63C.603.636.602.64.6.646a.032.032 0 0 1-.013.012.037.037 0 0 1-.017.004H.52zM.546.606h.02C.576.606.584.604.588.6A.015.015 0 0 0 .593.588c0-.003 0-.005-.002-.007A.012.012 0 0 0 .586.576.04.04 0 0 0 .573.575H.552l-.007.03zM.535.65H.572a.028.028 0 0 0 .01-.004.018.018 0 0 0 .01-.016C.59.626.588.623.585.62.583.617.577.616.569.616H.543L.536.65z"/>
    <path id="16" class="fil0" d="M.605.69L.606.677h.007a.01.01 0 0 0 .006 0A.028.028 0 0 0 .626.668L.63.662.618.591H.63l.005.036a.494.494 0 0 1 .003.02L.669.592h.013L.637.67a.051.051 0 0 1-.012.016.019.019 0 0 1-.011.004C.61.69.608.69.605.689z"/>
    <path id="17" class="fil0" d="M.717.662l.02-.098h.044l.011.004A.02.02 0 0 1 .8.576a.023.023 0 0 1 .002.011c0 .006-.001.01-.004.014a.027.027 0 0 1-.014.01c.005.001.01.004.012.008A.02.02 0 0 1 .8.63C.8.636.798.64.795.646a.032.032 0 0 1-.012.012.037.037 0 0 1-.018.004H.717zM.742.606h.02C.772.606.78.604.784.6A.015.015 0 0 0 .79.588C.79.585.79.583.788.58A.012.012 0 0 0 .783.576.04.04 0 0 0 .77.575H.748l-.006.03zM.732.65h.036a.028.028 0 0 0 .01-.004A.018.018 0 0 0 .787.63C.787.626.785.623.782.62.78.617.774.616.765.616H.74L.732.65z"/>
    <path id="18" class="fil0" d="M.824.578L.827.564h.012L.836.578H.824zM.806.662L.821.59h.012L.818.66H.806z"/>
    <path id="19" class="fil0" d="M.837.662L.85.59h.011L.86.603a.058.058 0 0 1 .013-.01.027.027 0 0 1 .013-.004C.892.59.896.591.9.594a.017.017 0 0 1 .005.013L.903.619l-.01.043H.881l.01-.045a.05.05 0 0 0 .002-.01C.893.605.892.603.89.602.89.6.886.599.883.599a.024.024 0 0 0-.017.007.042.042 0 0 0-.01.023L.848.662H.837z"/>
    <path id="20" class="fil0" d="M.96.653a.047.047 0 0 1-.012.008.031.031 0 0 1-.012.002A.022.022 0 0 1 .92.658.02.02 0 0 1 .914.643a.02.02 0 0 1 .01-.018.031.031 0 0 1 .01-.004A.12.12 0 0 1 .95.62.056.056 0 0 0 .966.617L.968.61A.008.008 0 0 0 .965.603.02.02 0 0 0 .952.599.021.021 0 0 0 .94.603a.02.02 0 0 0-.007.01L.92.61A.032.032 0 0 1 .933.595a.035.035 0 0 1 .02-.006c.009 0 .015.002.02.007A.015.015 0 0 1 .98.608L.978.62.974.639a.068.068 0 0 0-.002.013l.001.01H.961A.046.046 0 0 1 .96.653zM.964.626A.11.11 0 0 1 .95.629.074.074 0 0 0 .934.63a.012.012 0 0 0-.009.012A.01.01 0 0 0 .93.65c.003.002.006.003.01.003A.023.023 0 0 0 .96.642.052.052 0 0 0 .964.626z"/>
    <path id="21" class="fil0" d="M.988.662L1.003.59h.01L1.01.605a.05.05 0 0 1 .011-.012.017.017 0 0 1 .01-.004.02.02 0 0 1 .01.003l-.005.011a.011.011 0 0 0-.007-.002c-.004 0-.009.002-.013.007a.054.054 0 0 0-.01.025L1 .662H.988z"/>
    <path id="22" class="fil0" d="M1.029.69V.677h.008a.01.01 0 0 0 .006 0 .028.028 0 0 0 .006-.009l.004-.007L1.04.591h.012l.005.036a.494.494 0 0 1 .003.02l.032-.056h.012L1.06.67a.051.051 0 0 1-.011.016.019.019 0 0 1-.012.004c-.003 0-.006 0-.008-.002z"/>
    <path id="23" class="fil0" d="M1.095.662l.002-.014h.014l-.003.014z"/>
    <path id="24" class="fil0" d="M1.178.636l.012.001a.04.04 0 0 1-.013.02.03.03 0 0 1-.02.006.025.025 0 0 1-.018-.007.029.029 0 0 1-.007-.021.06.06 0 0 1 .005-.023A.034.034 0 0 1 1.17.59c.007 0 .013.002.017.007.005.004.007.01.007.017h-.012a.014.014 0 0 0-.004-.01.014.014 0 0 0-.01-.004.019.019 0 0 0-.012.005.03.03 0 0 0-.009.014.059.059 0 0 0-.003.018c0 .006.001.01.004.014a.013.013 0 0 0 .01.004.017.017 0 0 0 .011-.004.03.03 0 0 0 .009-.014z"/>
    <path id="25" class="fil0" d="M1.2.635A.05.05 0 0 1 1.21.6a.034.034 0 0 1 .027-.012c.008 0 .015.003.02.008a.03.03 0 0 1 .008.022.053.053 0 0 1-.005.023.036.036 0 0 1-.033.021.032.032 0 0 1-.015-.003.024.024 0 0 1-.01-.01.03.03 0 0 1-.004-.015zM1.21.634c0 .006.002.011.005.015a.016.016 0 0 0 .012.005.02.02 0 0 0 .008-.001.022.022 0 0 0 .007-.005.032.032 0 0 0 .005-.008.042.042 0 0 0 .004-.008.042.042 0 0 0 .002-.013.021.021 0 0 0-.005-.015.016.016 0 0 0-.012-.005.02.02 0 0 0-.01.002.027.027 0 0 0-.009.008.035.035 0 0 0-.005.012.05.05 0 0 0-.002.013z"/>
    <path id="26" class="fil0" d="M1.273.662L1.287.59H1.3l-.002.012a.048.048 0 0 1 .012-.01.024.024 0 0 1 .011-.004c.005 0 .008.001.011.004a.016.016 0 0 1 .006.01.04.04 0 0 1 .011-.01.025.025 0 0 1 .013-.004c.006 0 .01.002.013.005a.016.016 0 0 1 .005.011c0 .002 0 .006-.002.011l-.01.046h-.011l.01-.047V.607c0-.003 0-.004-.002-.006A.009.009 0 0 0 1.358.6a.022.022 0 0 0-.01.004.023.023 0 0 0-.01.008.058.058 0 0 0-.005.016l-.007.035h-.012l.01-.048.001-.007c0-.002 0-.004-.002-.006A.008.008 0 0 0 1.317.6a.021.021 0 0 0-.01.004.026.026 0 0 0-.01.009.054.054 0 0 0-.005.016l-.007.034h-.012z"/>
    <path fill="none" d="M0 0h2.562v.706H0z"/>
  </g>
</svg>