<svg xmlns="http://www.w3.org/2000/svg" viewBox="0 0 2.706 0.76" shape-rendering="geometricPrecision" text-rendering="geometricPrecision" image-rendering="optimizeQuality" fill-rule="evenodd" clip-rule="evenodd"><defs><style>.fil0,.fil1{fill-rule:nonzero}.fil1{fill:#f08519}.fil0{fill:#fefefe}</style></defs><g id="Layer_x0020_4"><path class="fil0" d="M.017.317L.098.309a.1.1 0 0 0 .03.06c.014.013.034.02.06.02a.09.09 0 0 0 .06-.018.051.051 0 0 0 .02-.04A.038.038 0 0 0 .26.306.067.067 0 0 0 .23.288.951.951 0 0 0 .164.27.223.223 0 0 1 .07.23.109.109 0 0 1 .033.145.109.109 0 0 1 .102.044a.202.202 0 0 1 .08-.015C.234.03.272.041.3.064c.026.023.04.054.04.092L.257.16C.253.138.246.122.233.113.222.103.204.099.181.099a.093.093 0 0 0-.056.015.03.03 0 0 0-.013.026c0 .01.004.018.012.025C.134.174.16.183.2.193c.04.01.07.02.09.03.02.01.034.024.045.042.011.018.017.04.017.066a.123.123 0 0 1-.076.113.23.23 0 0 1-.09.015.177.177 0 0 1-.118-.036.158.158 0 0 1-.05-.106z"/><path id="1" class="fil0" d="M.793.451h-.09L.668.357H.503L.468.451H.38L.54.037h.088L.793.45zM.64.287L.583.134.528.287H.64z"/><path id="2" class="fil0" d="M.815.317L.896.309a.1.1 0 0 0 .03.06c.015.013.035.02.06.02.027 0 .047-.006.06-.018a.051.051 0 0 0 .02-.04.038.038 0 0 0-.008-.025.067.067 0 0 0-.03-.018A.951.951 0 0 0 .962.27.223.223 0 0 1 .869.23.109.109 0 0 1 .83.145.109.109 0 0 1 .9.044.202.202 0 0 1 .98.029c.052 0 .09.012.117.035.026.023.04.054.04.092L1.055.16c-.003-.021-.01-.037-.022-.046C1.02.103 1.002.099.98.099a.093.093 0 0 0-.057.015A.03.03 0 0 0 .91.14c0 .01.004.018.013.025a.21.21 0 0 0 .076.028c.04.01.07.02.089.03.02.01.034.024.045.042.011.018.017.04.017.066a.123.123 0 0 1-.075.113.23.23 0 0 1-.09.015.18.18 0 0 1-.12-.036.158.158 0 0 1-.05-.106z"/><path id="3" class="fil1" d="M1.313.451V.107h-.122v-.07h.327v.07h-.122V.45z"/><path id="4" class="fil1" d="M1.614.451h-.078v-.3h.073v.043a.125.125 0 0 1 .034-.04.063.063 0 0 1 .034-.01.1.1 0 0 1 .052.015l-.025.07a.069.069 0 0 0-.037-.013.044.044 0 0 0-.028.009c-.008.006-.014.017-.018.033a.474.474 0 0 0-.007.1v.093z"/><path id="5" class="fil1" d="M1.821.244L1.751.23a.114.114 0 0 1 .04-.065.15.15 0 0 1 .088-.021c.035 0 .062.004.079.012s.03.02.036.032c.007.013.01.037.01.071v.093a.17.17 0 0 0 .018.099h-.079a.304.304 0 0 1-.01-.033.141.141 0 0 1-.043.03.121.121 0 0 1-.05.01.1.1 0 0 1-.071-.025.084.084 0 0 1-.027-.064c0-.017.004-.032.012-.045a.079.079 0 0 1 .034-.03.264.264 0 0 1 .063-.02.429.429 0 0 0 .076-.019V.248c0-.015-.004-.026-.011-.033-.008-.006-.022-.01-.043-.01a.055.055 0 0 0-.032.009.058.058 0 0 0-.02.03zm.106.064A.492.492 0 0 1 1.88.32a.147.147 0 0 0-.043.014.033.033 0 0 0-.015.028c0 .01.004.02.012.029a.043.043 0 0 0 .032.012.068.068 0 0 0 .04-.014.05.05 0 0 0 .02-.027.16.16 0 0 0 .002-.038V.308z"/><path id="6" class="fil1" d="M2.356.451h-.073V.407a.123.123 0 0 1-.043.039.108.108 0 0 1-.05.013.114.114 0 0 1-.09-.042.171.171 0 0 1-.036-.116c0-.051.011-.09.035-.117a.116.116 0 0 1 .177.002v-.15h.079v.415zm-.21-.156a.14.14 0 0 0 .013.07.06.06 0 0 0 .1.008.115.115 0 0 0 .018-.07c0-.035-.006-.06-.018-.075A.058.058 0 0 0 2.21.205a.059.059 0 0 0-.047.023c-.012.015-.018.037-.018.067z"/><path id="7" class="fil1" d="M2.606.356l.078.014a.13.13 0 0 1-.047.066.14.14 0 0 1-.082.023c-.052 0-.09-.017-.115-.051a.174.174 0 0 1-.03-.104c0-.05.013-.089.04-.117a.127.127 0 0 1 .097-.042.13.13 0 0 1 .105.044c.025.03.038.075.036.136h-.197a.08.08 0 0 0 .02.055.06.06 0 0 0 .045.02.048.048 0 0 0 .03-.01.063.063 0 0 0 .02-.034zm.004-.08a.078.078 0 0 0-.017-.053.054.054 0 0 0-.041-.018.054.054 0 0 0-.043.02.074.074 0 0 0-.016.05l.117.001z"/><path id="8" class="fil0" d="M.007.672L.021.67v.004c0 .004 0 .008.002.01a.018.018 0 0 0 .01.009l.014.002A.033.033 0 0 0 .066.69.018.018 0 0 0 .072.677.014.014 0 0 0 .07.668a.065.065 0 0 0-.02-.01A.135.135 0 0 1 .034.65a.033.033 0 0 1-.01-.01A.023.023 0 0 1 .02.627c0-.005 0-.01.004-.014a.027.027 0 0 1 .013-.01A.05.05 0 0 1 .056.6C.064.6.07.6.077.604c.006.003.01.006.012.011.003.005.004.01.004.014V.63H.08V.626A.018.018 0 0 0 .074.618.021.021 0 0 0 .067.613.035.035 0 0 0 .055.61a.027.027 0 0 0-.017.005.013.013 0 0 0-.005.01c0 .003 0 .005.002.007A.02.02 0 0 0 .042.64.273.273 0 0 0 .06.647a.114.114 0 0 1 .016.008.024.024 0 0 1 .012.021.048.048 0 0 1-.008.016.033.033 0 0 1-.014.01.051.051 0 0 1-.02.005.05.05 0 0 1-.029-.008C.011.694.008.685.007.672z"/><path id="9" class="fil0" d="M.148.691C.14.701.13.707.121.707A.02.02 0 0 1 .107.702.016.016 0 0 1 .102.689L.104.673.114.63h.013l-.01.048a.047.047 0 0 0-.002.01c0 .003 0 .005.002.006l.008.002c.004 0 .007 0 .01-.002a.028.028 0 0 0 .01-.007A.037.037 0 0 0 .15.676.091.091 0 0 0 .154.663L.161.63h.013L.157.705H.146L.148.691z"/><path id="10" class="fil0" d="M.172.734L.193.63h.012L.203.64A.046.046 0 0 1 .214.63.024.024 0 0 1 .225.629c.007 0 .013.003.018.008C.248.641.25.65.25.658A.057.057 0 0 1 .246.68a.048.048 0 0 1-.01.015.04.04 0 0 1-.01.009.027.027 0 0 1-.013.003C.205.707.198.702.193.693l-.009.04H.172zm.025-.06v.012a.016.016 0 0 0 .015.01C.22.696.227.692.232.684A.052.052 0 0 0 .237.658.022.022 0 0 0 .233.644.014.014 0 0 0 .222.639c-.004 0-.007 0-.01.002A.027.027 0 0 0 .206.65a.046.046 0 0 0-.007.01.045.045 0 0 0-.002.013z"/><path id="11" class="fil0" d="M.251.734L.273.63h.012L.283.64A.046.046 0 0 1 .294.63.024.024 0 0 1 .305.629c.007 0 .013.003.018.008C.328.641.33.65.33.658a.056.056 0 0 1-.013.037.04.04 0 0 1-.012.009.027.027 0 0 1-.012.003C.284.707.277.702.273.693l-.009.04H.251zm.025-.06c0 .006 0 .01.002.012a.016.016 0 0 0 .015.01C.3.696.306.692.31.684A.052.052 0 0 0 .317.658.022.022 0 0 0 .313.644.014.014 0 0 0 .3.639c-.003 0-.006 0-.009.002A.027.027 0 0 0 .285.65a.046.046 0 0 0-.006.01.045.045 0 0 0-.003.013z"/><path id="12" class="fil0" d="M.34.676C.34.662.344.65.352.64A.035.035 0 0 1 .38.628c.01 0 .016.003.022.009A.031.031 0 0 1 .41.66a.056.056 0 0 1-.005.024.039.039 0 0 1-.035.023.033.033 0 0 1-.016-.004.026.026 0 0 1-.01-.01A.032.032 0 0 1 .34.675zm.012 0c0 .006.002.012.005.015A.017.017 0 0 0 .37.697.02.02 0 0 0 .378.695.023.023 0 0 0 .386.69.033.033 0 0 0 .392.682a.045.045 0 0 0 .004-.01A.045.045 0 0 0 .398.66.023.023 0 0 0 .393.644.017.017 0 0 0 .38.638a.021.021 0 0 0-.011.003.029.029 0 0 0-.01.008.037.037 0 0 0-.005.013.053.053 0 0 0-.002.013z"/><path id="13" class="fil0" d="M.417.705L.433.63h.011L.441.645A.053.053 0 0 1 .452.632.018.018 0 0 1 .463.628l.01.003-.005.012A.012.012 0 0 0 .46.64C.456.64.451.643.447.648a.057.057 0 0 0-.011.027l-.007.03H.417z"/><path id="14" class="fil0" d="M.495.695l-.002.01a.035.035 0 0 1-.01.001.018.018 0 0 1-.011-.003.01.01 0 0 1-.004-.008L.47.683.48.64H.47V.63h.01L.485.61.5.603.494.63h.012L.504.64H.492L.483.68a.076.076 0 0 0-.001.01v.003l.005.001a.03.03 0 0 0 .008 0z"/><path id="15" class="fil0" d="M.546.705L.568.601H.6l.013.001c.005 0 .009.002.012.004a.02.02 0 0 1 .007.008.025.025 0 0 1 .003.012c0 .006-.002.01-.005.015a.029.029 0 0 1-.014.01c.006.002.01.005.013.008a.02.02 0 0 1 .004.013.034.034 0 0 1-.018.029.04.04 0 0 1-.019.004h-.05zm.026-.06h.022c.01 0 .018-.001.023-.004A.016.016 0 0 0 .623.627c0-.003 0-.006-.002-.008A.012.012 0 0 0 .615.615.042.042 0 0 0 .602.613H.579L.572.646zm-.01.048H.6A.03.03 0 0 0 .61.689.02.02 0 0 0 .62.672c0-.005 0-.008-.004-.01C.612.658.605.656.597.656H.57L.562.693z"/><path id="16" class="fil0" d="M.636.734V.722h.008a.01.01 0 0 0 .007 0 .03.03 0 0 0 .006-.01L.661.705.65.63h.012l.006.038A.502.502 0 0 1 .67.69L.703.63h.013L.67.715A.054.054 0 0 1 .657.73a.02.02 0 0 1-.012.004h-.01z"/><path id="17" class="fil0" d="M.754.705L.775.601h.033l.013.001c.005 0 .01.002.012.004a.02.02 0 0 1 .008.008.025.025 0 0 1 .003.012c0 .006-.002.01-.005.015a.029.029 0 0 1-.014.01c.005.002.01.005.012.008a.021.021 0 0 1 .004.013.034.034 0 0 1-.018.029.04.04 0 0 1-.018.004H.754zM.78.645h.022c.01.001.018 0 .022-.003A.016.016 0 0 0 .831.627L.829.619A.012.012 0 0 0 .823.615.042.042 0 0 0 .809.613H.787L.78.646zM.77.694h.037A.03.03 0 0 0 .818.689.02.02 0 0 0 .827.672C.827.667.826.664.823.662.819.658.813.656.805.656H.777L.77.693z"/><path id="18" class="fil0" d="M.867.616L.87.6h.012L.88.616H.867zM.848.705L.864.63h.012L.861.705H.848z"/><path id="19" class="fil0" d="M.88.705L.896.63h.011L.905.643A.061.061 0 0 1 .919.632.028.028 0 0 1 .932.628a.02.02 0 0 1 .015.005.017.017 0 0 1 .005.014A.07.07 0 0 1 .95.66L.94.705H.927l.01-.048A.053.053 0 0 0 .94.647C.94.645.94.643.937.641L.929.64a.026.026 0 0 0-.018.007A.045.045 0 0 0 .9.67L.893.705H.88z"/><path id="20" class="fil0" d="M1.01.696a.05.05 0 0 1-.012.008.033.033 0 0 1-.014.003A.023.023 0 0 1 .968.7.02.02 0 0 1 .962.685a.022.022 0 0 1 .01-.019.033.033 0 0 1 .011-.004A.127.127 0 0 1 1 .66a.059.059 0 0 0 .017-.002.034.034 0 0 0 .001-.009.008.008 0 0 0-.003-.007.02.02 0 0 0-.013-.003.022.022 0 0 0-.013.003.02.02 0 0 0-.007.01H.969A.034.034 0 0 1 .98.633a.037.037 0 0 1 .022-.006c.009 0 .016.003.022.007a.016.016 0 0 1 .006.013c0 .004 0 .008-.002.014L1.025.68a.071.071 0 0 0-.002.015c0 .002 0 .006.002.01h-.013a.048.048 0 0 1-.002-.01zm.005-.03A.115.115 0 0 1 .999.67a.076.076 0 0 0-.016.003.013.013 0 0 0-.006.005.012.012 0 0 0-.003.007c0 .004.001.007.004.01.002.002.006.003.01.003A.025.025 0 0 0 1.01.684a.054.054 0 0 0 .006-.017z"/><path id="21" class="fil0" d="M1.04.705L1.056.63h.01l-.002.015a.053.053 0 0 1 .011-.013.019.019 0 0 1 .011-.004l.01.003-.006.012A.012.012 0 0 0 1.083.64c-.004 0-.009.003-.014.008a.057.057 0 0 0-.01.027l-.007.03H1.04z"/><path id="22" class="fil0" d="M1.083.734V.722h.008a.01.01 0 0 0 .007 0 .03.03 0 0 0 .006-.01l.004-.007L1.096.63h.013l.005.038a.502.502 0 0 1 .003.022L1.15.63h.013l-.047.085a.054.054 0 0 1-.012.016.02.02 0 0 1-.012.004l-.01-.001z"/><path id="23" class="fil0" d="M1.152.705l.003-.014h.015l-.003.014z"/><path id="24" class="fil0" d="M1.24.678h.013A.043.043 0 0 1 1.239.7a.032.032 0 0 1-.02.007.026.026 0 0 1-.02-.008.03.03 0 0 1-.007-.022.07.07 0 0 1 .005-.025.036.036 0 0 1 .033-.024c.008 0 .015.003.02.007.004.005.006.01.006.018l-.012.001A.015.015 0 0 0 1.24.643a.014.014 0 0 0-.01-.004.02.02 0 0 0-.014.005.032.032 0 0 0-.009.014.062.062 0 0 0-.003.02c0 .006.001.01.004.014a.013.013 0 0 0 .01.005.018.018 0 0 0 .012-.005.03.03 0 0 0 .01-.014z"/><path id="25" class="fil0" d="M1.263.676c0-.014.004-.026.013-.036a.035.035 0 0 1 .027-.012c.01 0 .017.003.022.009a.031.031 0 0 1 .008.023.056.056 0 0 1-.005.024.039.039 0 0 1-.035.023.033.033 0 0 1-.015-.004.026.026 0 0 1-.011-.01.032.032 0 0 1-.004-.017zm.013 0c0 .006.001.012.005.015a.017.017 0 0 0 .013.006.02.02 0 0 0 .008-.002.023.023 0 0 0 .007-.005.033.033 0 0 0 .006-.008.045.045 0 0 0 .004-.01A.045.045 0 0 0 1.32.66a.023.023 0 0 0-.005-.015.017.017 0 0 0-.013-.006.021.021 0 0 0-.01.003.029.029 0 0 0-.01.008.037.037 0 0 0-.006.013.053.053 0 0 0-.001.013z"/><path id="26" class="fil0" d="M1.34.705L1.356.63h.013l-.003.012a.05.05 0 0 1 .013-.01.025.025 0 0 1 .012-.004.017.017 0 0 1 .018.014.042.042 0 0 1 .012-.01.027.027 0 0 1 .013-.004c.006 0 .01.002.014.005a.016.016 0 0 1 .005.012L1.45.657l-.01.048h-.013l.01-.05.002-.008c0-.003-.001-.005-.003-.006A.01.01 0 0 0 1.43.639a.023.023 0 0 0-.012.003.025.025 0 0 0-.009.01.061.061 0 0 0-.006.017l-.007.036h-.013l.01-.05.002-.008c0-.002 0-.004-.002-.006A.008.008 0 0 0 1.388.64a.023.023 0 0 0-.012.003.027.027 0 0 0-.01.01.057.057 0 0 0-.006.017l-.007.036H1.34z"/><path fill="none" d="M0 0h2.706v.76H0z"/></g></svg>